# xmcd CD database file
#
# Track frame offsets:
#	150
#	12375
#	27890
#	41540
#	59338
#	73689
#	87143
#	105575
#	118625
#	133216
#	147953
#	164674
#	188480
#	210796
#
# Disc length: 3117 seconds
#
# Revision: 0
# Processed by: cddbd v1.5.2PL0 Copyright (c) Steve Scherf et al.
# Submitted via: CDex 1.70beta2
#
DISCID=bd0c2b0e
DTITLE=Loose Marbles - Balls Out
DYEAR=2007
DGENRE=Jazz
TTITLE0=Salty Dog
TTITLE1=Ole Miss
TTITLE2=Ballin' the Jack
TTITLE3=Smiles
TTITLE4=Woman, Woman, Woman
TTITLE5=Whinin' Boy
TTITLE6=Squirrel Waltz
TTITLE7=Canal St. Blues
TTITLE8=Crumpled Paper
TTITLE9=Crumpled Papyrus
TTITLE10=Red Wing
TTITLE11=Tears
TTITLE12=After You've Gone
TTITLE13=Don't Ya Leave Me Here
EXTD=YEAR: 2007
EXTT0=
EXTT1=
EXTT2=
EXTT3=
EXTT4=
EXTT5=
EXTT6=
EXTT7=
EXTT8=
EXTT9=
EXTT10=
EXTT11=
EXTT12=
EXTT13=
PLAYORDER=
